<?xml version="1.0" encoding="UTF-8" standalone="no"?>
<!-- Created with Inkscape (http://www.inkscape.org/) -->

<svg
   width="270.93332mm"
   height="270.93332mm"
   viewBox="0 0 270.93332 270.93332"
   version="1.1"
   id="svg1"
   xml:space="preserve"
   inkscape:version="1.3.2 (091e20e, 2023-11-25, custom)"
   sodipodi:docname="logo.svg"
   xmlns:inkscape="http://www.inkscape.org/namespaces/inkscape"
   xmlns:sodipodi="http://sodipodi.sourceforge.net/DTD/sodipodi-0.dtd"
   xmlns="http://www.w3.org/2000/svg"
   xmlns:svg="http://www.w3.org/2000/svg"><sodipodi:namedview
     id="namedview1"
     pagecolor="#a9a9a9"
     bordercolor="#000000"
     borderopacity="0.25"
     inkscape:showpageshadow="2"
     inkscape:pageopacity="0.0"
     inkscape:pagecheckerboard="0"
     inkscape:deskcolor="#d1d1d1"
     inkscape:document-units="mm"
     inkscape:zoom="2.0485264"
     inkscape:cx="467.16507"
     inkscape:cy="268.72975"
     inkscape:window-width="1920"
     inkscape:window-height="1009"
     inkscape:window-x="1912"
     inkscape:window-y="-8"
     inkscape:window-maximized="1"
     inkscape:current-layer="layer1" /><defs
     id="defs1" /><g
     inkscape:label="Livello 1"
     inkscape:groupmode="layer"
     id="layer1"
     transform="translate(20.392859,20.027544)"><circle
       style="fill:#ffffff;stroke-width:0.264583"
       id="path5"
       cx="92.374504"
       cy="39.93932"
       r="12.915789" /><circle
       style="fill:#ffffff;stroke-width:0.264583"
       id="path5-9"
       cx="62.815693"
       cy="38.895981"
       r="12.915789" /><g
       id="g3"><path
         style="fill:#f04142"
         d="m 52.198094,231.14721 c -0.719857,-1.72108 -1.609864,-5.61724 -2.104613,-9.21331 -0.680607,-4.94696 -0.692137,-15.50668 -0.02035,-18.63834 0.541614,-2.52484 0.970735,-3.52118 1.397686,-3.24519 0.159696,0.10324 1.095507,1.77522 2.079581,3.71552 0.984074,1.9403 1.876139,3.42858 1.982368,3.30729 0.106228,-0.12129 0.909634,-1.17454 1.785346,-2.34055 4.451019,-5.92652 9.814029,-9.47582 17.274442,-11.43242 3.137273,-0.8228 9.541122,-1.11743 13.311554,-0.61245 5.937902,0.79527 13.719813,3.26557 23.597823,7.49092 11.99083,5.12912 16.80127,6.67694 24.00724,7.72464 14.70909,2.13861 26.62226,-3.1826 31.82526,-14.21524 1.28738,-2.72983 1.73853,-4.66006 1.9028,-8.14106 0.12078,-2.55971 0.0538,-3.40574 -0.41726,-5.26846 -0.70179,-2.7752 -2.24503,-5.9516 -4.04419,-8.324 -2.76959,-3.65205 -8.38717,-7.20915 -13.18948,-8.35168 -3.08801,-0.73468 -3.44021,-0.71533 -3.437,0.18884 0.004,1.02753 1.11901,3.2998 2.62019,5.33796 2.56145,3.4777 2.97051,5.0506 1.6555,6.36561 -0.79203,0.79203 -1.14611,0.91309 -8.90848,3.04571 -16.78482,4.61142 -22.92118,7.11299 -27.42141,11.17867 l -1.01362,0.91575 -0.26842,-0.706 c -0.3521,-0.92608 -0.34054,-2.68688 0.0291,-4.42885 0.30742,-1.4489 1.3404,-3.75202 1.81414,-4.04481 0.14829,-0.0916 0.26961,-0.28596 0.26961,-0.43181 0,-0.63822 -4.83462,0.62245 -7.71395,2.01149 -0.7595,0.36639 -1.43331,0.66617 -1.49735,0.66617 -0.064,0 -0.0595,-0.59245 0.0101,-1.31656 0.28395,-2.95519 3.06925,-6.87562 5.99134,-8.43307 2.3763,-1.26656 3.49196,-1.59037 7.97239,-2.31391 2.25558,-0.36425 4.63683,-0.7931 5.29167,-0.953 2.65311,-0.64784 4.28954,-2.02927 3.70272,-3.12574 -0.15496,-0.28956 -0.38883,-0.52647 -0.5197,-0.52647 -0.52711,0 -4.29532,-3.26086 -5.48216,-4.74405 -1.21361,-1.51663 -1.32906,-1.59069 -2.72522,-1.74834 -2.36126,-0.26663 -6.01287,-0.88494 -9.13085,-1.5461 l -2.91041,-0.61714 -0.6916,0.5575 c -9.05294,7.29776 -11.591065,9.42023 -13.891023,11.61613 -1.59414,1.52201 -2.747588,2.83338 -2.747588,3.12375 0,0.27526 0.401307,0.94731 0.891793,1.49343 1.970617,2.19414 3.715747,6.04409 3.084488,6.80471 -0.257348,0.31008 -0.574751,0.24803 -1.99825,-0.39065 -8.186347,-3.67297 -20.021275,-4.71644 -28.568655,-2.51886 -2.071384,0.53256 -5.918512,2.43851 -8.009226,3.96795 -1.950708,1.42701 -2.190349,1.25382 -1.523954,-1.10138 0.714598,-2.52556 2.659432,-6.16349 4.238254,-7.92791 0.802158,-0.89645 1.458468,-1.68042 1.458468,-1.74215 0,-0.15786 -3.0568,0.2781 -4.348604,0.6202 -1.630391,0.43177 -4.395374,1.56981 -5.501867,2.26452 -0.542811,0.3408 -1.107335,0.61964 -1.254497,0.61964 -0.147162,0 0.03473,-0.80367 0.404203,-1.78594 1.908851,-5.07478 6.421474,-9.22076 11.19118,-10.28192 2.567929,-0.57131 6.871632,-0.36887 11.339186,0.53338 6.527819,1.31834 8.764875,1.14611 10.97994,-0.84536 1.70322,-1.53129 2.515168,-3.0592 3.825794,-7.19932 0.667973,-2.11006 1.268716,-3.97847 1.334986,-4.15203 0.06853,-0.17949 -0.545239,-0.65203 -1.423354,-1.09584 -0.849114,-0.42914 -2.473812,-1.448 -3.610441,-2.26412 -1.28716,-0.9242 -2.334957,-1.48347 -2.778125,-1.48286 -1.006331,0.001 -2.198541,0.80323 -3.39011,2.28004 -0.564071,0.69911 -1.40063,1.66249 -1.859021,2.14087 -1.723659,1.7988 -3.240296,0.98343 -8.265091,-4.44344 -5.360546,-5.7895 -7.384258,-7.36659 -9.471225,-7.38098 -1.340278,-0.009 -2.169696,0.4343 -3.981527,2.12918 -2.113645,1.97721 -3.277553,2.7178 -5.40758,3.44083 -2.338706,0.79386 -5.104294,0.60899 -7.47317,-0.49954 -1.608043,-0.75249 -2.752028,-1.86633 -2.438266,-2.374 0.07866,-0.12728 0.795271,-0.37739 1.592467,-0.55579 1.812845,-0.4057 4.396753,-2.05208 5.404961,-3.44387 1.953152,-2.69625 1.662451,-5.17412 -0.936334,-7.98112 -3.686535,-3.9819 -9.189284,-4.78673 -14.62517,-2.13907 -1.091406,0.53159 -2.073672,1.00622 -2.182812,1.05472 -0.329574,0.14648 -0.22345,-1.36313 0.194846,-2.77169 0.836956,-2.81833 3.836627,-6.13916 7.024226,-7.77627 l 1.181448,-0.60677 -1.058333,-0.47622 c -2.535695,-1.14098 -7.061868,-1.32221 -9.632418,-0.38568 -0.641163,0.23359 -1.231362,0.3591 -1.311553,0.27891 -0.307306,-0.3073 1.222634,-2.67124 2.741888,-4.23653 2.598813,-2.67757 5.517071,-3.87208 9.407648,-3.85077 5.045645,0.0276 8.480282,2.2648 13.419432,8.74074 3.557313,4.66416 7.350928,8.39941 9.706391,9.55707 2.274442,1.11784 4.869911,1.35999 6.998617,0.65295 0.736896,-0.24476 1.385958,-0.52521 1.442361,-0.62322 0.0564,-0.098 -0.05653,-1.07118 -0.250969,-2.16259 -1.208522,-6.78366 0.963671,-15.10881 5.90249,-22.62187 2.310476,-3.514757 5.05128,-6.681477 9.621932,-11.117164 7.783581,-7.553741 9.922214,-9.795655 11.258516,-11.802222 1.306103,-1.96122 2.743852,-5.403699 3.118264,-7.466221 l 0.184591,-1.01686 -0.876513,0.189962 c -1.46448,0.317389 -11.193601,4.044986 -15.69318,6.012654 -7.47501,3.268827 -10.391282,4.930159 -13.022391,7.418552 -2.364185,2.235947 -2.722335,3.492607 -1.498648,5.258388 0.380876,0.549604 0.626581,1.171067 0.546011,1.381029 -0.211865,0.552109 -2.938257,1.046186 -4.657806,0.844087 -2.193528,-0.257806 -5.451921,-1.149805 -7.359232,-2.014622 -4.474201,-2.028699 -7.344277,-5.7324 -5.162619,-6.662122 1.266372,-0.539669 1.653645,-1.023215 1.653645,-2.064728 0,-1.504672 0.495395,-3.778893 0.91444,-4.197938 0.324462,-0.324462 0.621187,-0.229478 2.177995,0.69719 2.337663,1.391461 2.753842,1.495996 3.956064,0.993676 1.50564,-0.629097 1.8929,-1.106855 2.223532,-2.743145 0.335683,-1.661288 0.875364,-2.682388 1.41772,-2.682388 0.197342,0 1.003065,0.294953 1.790497,0.655451 1.188481,0.544105 1.587199,0.612322 2.347077,0.401569 1.067842,-0.296168 5.485885,-3.571573 9.179582,-6.805468 3.103143,-2.716854 12.270202,-11.508469 12.137894,-11.640777 -0.13307,-0.13307 -5.280147,0.953818 -7.007985,1.479848 l -1.447304,0.440624 -1.475486,2.893698 c -0.811517,1.591533 -1.665417,3.005942 -1.897555,3.143129 -0.707857,0.418324 -1.649301,-0.0085 -3.693305,-1.67447 -3.23468,-2.63642 -4.07735,-2.293825 -6.16747,2.507438 -0.69684,1.600729 -1.426398,3.074681 -1.621238,3.275449 -0.527695,0.543748 -1.510702,0.187141 -3.138145,-1.13843 -2.66906,-2.173979 -3.908774,-2.465083 -6.00223,-1.409415 -1.404269,0.708132 -1.736922,1.326932 -2.275956,4.233725 -0.466345,2.514807 -0.93309,3.435549 -1.61709,3.190009 -0.254372,-0.09131 -1.712651,-1.052508 -3.24062,-2.135986 l -2.778125,-1.969961 -1.41527,0.143705 c -2.623402,0.266377 -6.367692,3.234371 -8.867748,7.029216 -0.665841,1.010684 -1.35491,1.926783 -1.531263,2.035775 -0.875569,0.541131 -4.136561,-5.269687 -5.285112,-9.417629 -0.817434,-2.952129 -0.880541,-8.930992 -0.114499,-10.847916 0.261689,-0.654844 0.69084,-2.429603 0.953669,-3.943908 0.535798,-3.087042 1.944263,-6.348535 3.056231,-7.077125 0.35904,-0.235251 0.694866,-0.381836 0.746282,-0.325744 0.05141,0.05609 0.640408,1.195749 1.308872,2.532572 1.183412,2.366635 1.234686,2.424951 1.948781,2.216435 4.889759,-1.427814 12.418543,-4.055508 12.846834,-4.483798 0.118426,-0.118426 -0.196062,-1.037036 -0.698862,-2.041355 -3.252359,-6.49643 -2.301358,-13.111763 2.585164,-17.982873 3.20302,-3.192918 6.419162,-4.607294 10.484769,-4.610931 5.203248,-0.0047 9.663482,2.28167 12.446764,6.380234 0.886086,1.304821 1.137869,1.519573 1.533407,1.307888 0.260284,-0.1393 4.451896,-4.324741 9.314694,-9.300981 C 97.888006,9.3210705 103.00542,4.7414513 108.32693,1.4729352 c 2.29802,-1.41146709 5.05369,-2.6443531 5.31854,-2.37951051 0.0911,0.0911096 -0.11579,0.51216853 -0.45978,0.93568647 -0.34399,0.42351795 -1.58761,1.94785574 -2.7636,3.38741724 -4.34847,5.3230819 -12.403087,17.8152926 -11.845982,18.3723976 0.144835,0.144836 1.028802,0.333232 1.964372,0.418659 1.92486,0.175758 1.45299,0.45026 6.23124,-3.62493 8.42825,-7.188146 21.95338,-16.4939728 27.21979,-18.7282971 2.05746,-0.8728973 5.03396,-1.5746764 5.34777,-1.2608621 0.11169,0.1116801 -0.74822,1.04518207 -1.9109,2.0744489 -6.54006,5.7896362 -15.13698,15.7587443 -20.00878,23.2024833 -2.45442,3.750166 -2.88973,4.789882 -2.30306,5.500653 1.00124,1.213011 4.88185,2.127072 10.10201,2.379485 2.53312,0.122485 3.43363,0.257472 3.53836,0.530406 0.0848,0.220931 -0.51721,0.961293 -1.5181,1.867044 -1.91248,1.730696 -2.63079,3.088879 -2.62259,4.958812 0.0115,2.616264 0.97844,4.327882 5.961,10.551514 3.8851,4.852832 5.08676,6.667261 4.68299,7.071034 -0.1667,0.166699 -1.16036,0.06166 -2.8216,-0.298257 -1.41036,-0.305566 -2.94761,-0.518535 -3.41611,-0.473266 -0.7347,0.07099 -0.8627,0.193563 -0.93095,0.891427 -0.0729,0.745433 0.88157,4.699395 3.25359,13.47838 0.94995,3.515831 1.46173,7.011458 1.02652,7.011458 -0.13235,0 -1.01412,-0.452003 -1.9595,-1.004451 -1.45611,-0.850899 -3.71299,-1.905966 -4.07704,-1.905966 -0.0578,0 -0.31247,0.565547 -0.56598,1.256771 -0.25351,0.691224 -1.3272,3.459427 -2.38599,6.151562 -2.38369,6.060878 -3.13047,8.146559 -3.66099,10.224649 -0.82875,3.2463 -0.36168,5.632573 1.23288,6.298823 3.21957,1.345222 11.10571,-3.794741 15.20624,-9.910991 7.63993,-11.39554 7.75413,-25.364809 0.31444,-38.462178 -0.95083,-1.673902 -1.28999,-2.524435 -1.18055,-2.960499 0.44344,-1.766783 8.03974,-9.795699 13.11613,-13.863099 10.30226,-8.254572 22.32535,-13.436141 36.01593,-15.521726 3.3931,-0.516896 13.63168,-0.655836 15.42608,-0.209336 0.99827,0.248402 1.6432,0.90436 0.88914,0.90436 -0.8235,0 -4.50274,2.773306 -6.59235,4.969137 -4.52701,4.757112 -6.428,10.935787 -5.11133,16.61312 1.10827,4.778783 4.62349,9.304245 13.29335,17.113751 1.93474,1.742741 3.47327,3.301913 3.41897,3.464827 -0.0543,0.162914 -0.62524,0.394957 -1.26875,0.515653 -5.84757,1.096767 -11.56125,4.016544 -14.88492,7.606423 -6.13123,6.622294 -6.27346,15.418069 -0.46773,28.926805 1.33422,3.104457 1.55804,3.869447 1.13212,3.869447 -0.12004,0 -1.05059,-0.2831 -2.06789,-0.62911 -2.8305,-0.962712 -7.04643,-1.948249 -10.40069,-2.431316 -3.6699,-0.528525 -9.37407,-0.406872 -11.78714,0.251384 -2.59928,0.709053 -5.66478,2.376382 -7.59979,4.133532 -3.11505,2.82873 -6.02625,8.06626 -6.02625,10.84181 0,1.55086 0.90863,2.39759 4.5743,4.26268 11.58695,5.89545 21.29908,14.80831 29.10063,26.70578 5.03778,7.68268 8.35525,15.81247 9.87581,24.20169 1.049,5.78749 0.98221,13.64854 -0.16253,19.13036 -3.09242,14.80865 -13.33062,27.93895 -26.72765,34.27773 -7.03242,3.32737 -13.12039,4.66795 -21.19854,4.66795 -4.28865,0 -6.37267,-0.22235 -11.39878,-1.2162 -7.60076,-1.50295 -14.48106,-4.37514 -26.26428,-10.96407 -16.761087,-9.37244 -28.5282,-12.58617 -37.650334,-10.28271 -1.062372,0.26826 -2.736885,0.91092 -3.72114,1.42813 -2.119311,1.11367 -5.004213,3.45024 -5.665399,4.58858 -0.452208,0.77856 -0.451664,0.81947 0.0142,1.06879 0.266422,0.14259 2.14489,0.37675 4.174374,0.52036 2.029484,0.14361 3.898331,0.34327 4.152992,0.44368 0.936926,0.36941 0.405441,0.94328 -1.984375,2.14261 -3.415616,1.71413 -5.291765,3.12488 -8.238109,6.19456 -1.762348,1.83611 -3.404538,3.95259 -5.326596,6.86499 -1.528309,2.31577 -2.899081,4.28486 -3.046158,4.37576 -0.147077,0.0909 -0.457742,-0.28978 -0.690367,-0.84596 z M 95.902068,51.263902 c 3.245638,-0.845159 5.934292,-3.058337 7.456112,-6.137526 0.84973,-1.719314 0.98585,-2.264252 1.08534,-4.345116 0.25948,-5.427253 -2.14358,-9.432124 -7.096801,-11.827349 -1.928143,-0.93239 -2.070599,-0.959583 -5.027083,-0.959583 -2.956374,0 -3.100186,0.02745 -5.068393,0.967352 -4.273251,2.040661 -6.837857,6.135844 -6.837857,10.918746 0,6.702711 5.029114,11.729297 11.784515,11.778588 1.169973,0.0085 2.836848,-0.169264 3.704167,-0.395112 z M 68.052141,50.02538 c 8.665297,-4.117732 9.318997,-15.570165 1.190237,-20.852247 -3.356959,-2.181357 -7.855087,-2.454633 -11.410094,-0.693201 -4.808751,2.382636 -7.337336,7.231248 -6.545969,12.552024 0.693469,4.662559 3.413089,8.03188 7.688707,9.525495 1.441131,0.503434 2.164751,0.590265 4.37274,0.524706 2.419709,-0.07185 2.821765,-0.162162 4.704379,-1.056777 z m -7.813233,-2.759406 c 0.181901,-0.0734 0.479557,-0.0734 0.661458,0 0.181901,0.0734 0.03307,0.133452 -0.330729,0.133452 -0.363802,0 -0.51263,-0.06005 -0.330729,-0.133452 z"
         id="path4" /><path
         style="fill:#1f1d1b"
         d="m 87.877654,47.42108 c -1.822644,-0.554859 -3.492567,-2.948869 -3.492567,-5.006961 0,-3.782186 3.850504,-6.341891 7.344123,-4.882163 3.833895,1.601904 4.362157,6.837632 0.930429,9.221712 -1.239073,0.860806 -3.232705,1.139053 -4.781985,0.667412 z M 59.112563,47.165201 c -2.377953,-0.494397 -3.866658,-2.244786 -4.048612,-4.760275 -0.36845,-5.093765 5.6419,-7.727582 9.043133,-3.962824 0.935091,1.035034 1.485458,2.433761 1.488161,3.782078 0.003,1.51677 -1.349553,3.707406 -2.77665,4.497013 -0.725784,0.401574 -2.745992,0.643609 -3.706032,0.444008 z"
         id="path3" /></g></g></svg>
