<?xml version="1.0" encoding="UTF-8" standalone="no"?>
<!-- Created with Inkscape (http://www.inkscape.org/) -->

<svg
   width="114.82917mm"
   height="114.82917mm"
   viewBox="0 0 114.82917 114.82917"
   version="1.1"
   id="svg1"
   xml:space="preserve"
   inkscape:version="1.3.2 (091e20e, 2023-11-25, custom)"
   sodipodi:docname="favicon.svg"
   xmlns:inkscape="http://www.inkscape.org/namespaces/inkscape"
   xmlns:sodipodi="http://sodipodi.sourceforge.net/DTD/sodipodi-0.dtd"
   xmlns="http://www.w3.org/2000/svg"
   xmlns:svg="http://www.w3.org/2000/svg"><sodipodi:namedview
     id="namedview1"
     pagecolor="#a9a9a9"
     bordercolor="#000000"
     borderopacity="0.25"
     inkscape:showpageshadow="2"
     inkscape:pageopacity="0.0"
     inkscape:pagecheckerboard="0"
     inkscape:deskcolor="#d1d1d1"
     inkscape:document-units="mm"
     inkscape:zoom="4.0970529"
     inkscape:cx="179.8854"
     inkscape:cy="165.11869"
     inkscape:window-width="1920"
     inkscape:window-height="1009"
     inkscape:window-x="1912"
     inkscape:window-y="-8"
     inkscape:window-maximized="1"
     inkscape:current-layer="layer1" /><defs
     id="defs1" /><g
     inkscape:label="Livello 1"
     inkscape:groupmode="layer"
     id="layer1"
     transform="translate(-20.461926,-38.362297)"><circle
       style="fill:#ffffff;fill-opacity:1;stroke:none;stroke-width:0.264583;stroke-opacity:1"
       id="path5"
       cx="86.366119"
       cy="87.295525"
       r="12.192344" /><circle
       style="fill:#ffffff;fill-opacity:1;stroke:none;stroke-width:0.264583;stroke-opacity:1"
       id="path5-8"
       cx="56.995911"
       cy="86.74427"
       r="12.192344" /><g
       id="g3"><path
         style="fill:#f04241"
         d="m 67.853926,152.59615 c 1.740399,-3.2914 5.674515,-8.02216 10.840281,-13.03539 7.783582,-7.55374 9.922215,-9.79566 11.258518,-11.80222 1.306102,-1.96122 2.743852,-5.4037 3.118263,-7.46623 l 0.184592,-1.01686 -0.876514,0.18997 c -1.464479,0.31739 -11.193602,4.04498 -15.69318,6.01265 -7.475012,3.26883 -10.391284,4.93016 -13.022393,7.41855 -2.364185,2.23595 -2.722335,3.49261 -1.498648,5.25839 0.380876,0.54961 0.626581,1.17107 0.546011,1.38103 -0.211865,0.55211 -2.938257,1.04619 -4.657806,0.84409 -2.193529,-0.25781 -5.451922,-1.14981 -7.359233,-2.01462 -4.474202,-2.0287 -7.344278,-5.7324 -5.16262,-6.66213 1.266373,-0.53967 1.653646,-1.02321 1.653646,-2.06472 0,-1.50468 0.495395,-3.7789 0.914439,-4.19794 0.324462,-0.32446 0.621188,-0.22948 2.177996,0.69719 2.337664,1.39146 2.753842,1.49599 3.956065,0.99367 1.505639,-0.62909 1.8929,-1.10685 2.223531,-2.74314 0.335683,-1.66129 0.875364,-2.68239 1.417721,-2.68239 0.197341,0 1.003065,0.29495 1.790497,0.65545 1.188481,0.54411 1.587199,0.61232 2.347077,0.40157 1.067842,-0.29617 5.485886,-3.57157 9.179583,-6.80547 3.103143,-2.71685 12.270202,-11.50847 12.137895,-11.64078 -0.13307,-0.13307 -5.280148,0.95382 -7.007986,1.47985 l -1.447304,0.44063 -1.475486,2.89369 c -0.811517,1.59154 -1.665417,3.00595 -1.897555,3.14313 -0.707857,0.41833 -1.649301,-0.008 -3.693306,-1.67447 -3.23468,-2.63642 -4.07735,-2.29382 -6.16747,2.50744 -0.696841,1.60073 -1.426398,3.07468 -1.621238,3.27545 -0.527695,0.54375 -1.510702,0.18714 -3.138146,-1.13843 -2.66906,-2.17398 -3.908774,-2.46508 -6.00223,-1.40941 -1.404269,0.70813 -1.736922,1.32693 -2.275956,4.23372 -0.466345,2.51481 -0.933091,3.43555 -1.617091,3.19001 -0.254372,-0.0913 -1.712651,-1.05251 -3.240619,-2.13599 l -2.778126,-1.96996 -1.41527,0.14371 c -2.623402,0.26637 -6.367693,3.23437 -8.867748,7.02921 -0.665842,1.01069 -1.354911,1.92679 -1.531264,2.03578 -0.875568,0.54113 -4.136561,-5.26969 -5.285112,-9.41763 -0.817435,-2.95213 -0.880541,-8.93099 -0.114499,-10.84792 0.261689,-0.65484 0.69084,-2.4296 0.953669,-3.94391 0.535798,-3.087037 1.944263,-6.348531 3.056231,-7.077121 0.35904,-0.235252 0.694866,-0.381837 0.746282,-0.325744 0.05141,0.05609 0.640408,1.195749 1.308872,2.532572 1.183412,2.366635 1.234686,2.424951 1.948781,2.216435 4.88976,-1.427814 12.418545,-4.055508 12.846835,-4.483798 0.118427,-0.118426 -0.196061,-1.037036 -0.698861,-2.041356 -3.25236,-6.49643 -2.301359,-13.111764 2.585164,-17.982874 3.20302,-3.192918 6.419163,-4.607294 10.48477,-4.610931 5.203248,-0.0047 9.663482,2.28167 12.446764,6.380235 0.886087,1.30482 1.137869,1.519573 1.533407,1.307887 0.260284,-0.1393 4.451897,-4.324741 9.314696,-9.300981 11.631698,-11.903047 16.749115,-16.482667 22.070619,-19.751183 2.29802,-1.411467 5.0537,-2.644353 5.31854,-2.379511 0.0911,0.09111 -0.11579,0.512169 -0.45978,0.935687 -0.34398,0.423518 -1.5876,1.947856 -2.76359,3.387417 -4.34848,5.323083 -12.403095,17.815295 -11.84599,18.3724 0.144836,0.144836 1.028802,0.333232 1.96437,0.418658 1.924863,0.175759 1.452995,0.450261 6.23124,-3.62493 8.42825,-7.188146 21.95338,-16.493974 27.21979,-18.728298 2.05746,-0.872898 5.03397,-1.574677 5.34778,-1.260863 0.11168,0.11168 -0.74823,1.045183 -1.9109,2.07445 -6.54007,5.789636 -15.13698,15.758745 -20.00878,23.202485 -2.45442,3.750166 -2.88974,4.789882 -2.30306,5.500653 1.00123,1.213011 4.88184,2.127073 10.102,2.379485 2.53313,0.122485 3.43363,0.257472 3.53837,0.530407 0.0848,0.22093 -0.51722,0.961293 -1.5181,1.867044 -1.91248,1.730696 -2.63079,3.088879 -2.62259,4.958812 0.0115,2.616264 0.97844,4.327882 5.96099,10.551515 3.88511,4.852828 5.08677,6.667258 4.68299,7.071038 -0.16669,0.1667 -1.16035,0.0617 -2.8216,-0.29826 -1.41035,-0.30557 -2.9476,-0.51854 -3.41611,-0.47327 -0.73469,0.071 -0.8627,0.19357 -0.93094,0.89143 -0.0729,0.74543 0.88156,4.6994 3.25358,13.47838 0.94995,3.51583 1.46174,7.01146 1.02652,7.01146 -0.13234,0 -1.01412,-0.452 -1.9595,-1.00445 -1.4561,-0.8509 -3.71299,-1.90597 -4.07703,-1.90597 -0.0578,0 -0.31247,0.56555 -0.56598,1.25677 -0.25351,0.69123 -1.34672,3.50733 -2.42936,6.25801 -1.08265,2.75068 -2.14136,5.58352 -2.35271,6.29519 -0.21134,0.71168 -0.79485,2.26751 -1.29668,3.4574 -0.50184,1.18989 -0.91243,2.37542 -0.91243,2.6345 0,0.25908 -0.0978,0.47105 -0.21742,0.47105 -0.11958,0 -0.49496,0.62508 -0.83418,1.38906 -0.33922,0.76399 -1.06314,2.34157 -1.60871,3.50573 -0.54558,1.16417 -1.2652,2.97987 -1.59915,4.0349 l -0.6072,1.91823 H 87.736998 67.539142 Z M 89.92561,98.805832 c 3.245639,-0.84516 5.934296,-3.058337 7.456114,-6.137527 0.849731,-1.719314 0.985847,-2.264252 1.085334,-4.345116 0.25948,-5.427253 -2.143574,-9.432125 -7.096797,-11.82735 -1.928142,-0.93239 -2.070598,-0.959582 -5.027083,-0.959582 -2.956375,0 -3.100186,0.02745 -5.068394,0.967351 -4.273251,2.040661 -6.837857,6.135845 -6.837857,10.918747 0,6.702712 5.029115,11.729298 11.784516,11.778589 1.169973,0.0085 2.836848,-0.169263 3.704167,-0.395112 z M 62.075681,97.56731 c 8.665298,-4.117733 9.318998,-15.570167 1.190237,-20.852249 -3.356959,-2.181357 -7.855088,-2.454633 -11.410095,-0.693201 -4.808752,2.382637 -7.337337,7.231248 -6.54597,12.552025 0.693469,4.66256 3.413089,8.031881 7.688708,9.525496 1.441131,0.503434 2.164751,0.590265 4.372741,0.524706 2.419709,-0.07185 2.821765,-0.162162 4.704379,-1.056777 z m -7.813234,-2.759406 c 0.181901,-0.0734 0.479558,-0.0734 0.661459,0 0.181901,0.0734 0.03307,0.133452 -0.330729,0.133452 -0.363803,0 -0.512631,-0.06005 -0.33073,-0.133452 z"
         id="path4" /><path
         style="fill:#1f1d1b"
         d="m 81.901196,94.96301 c -1.822645,-0.55486 -3.492568,-2.948869 -3.492568,-5.006961 0,-3.782187 3.850504,-6.341892 7.344124,-4.882164 3.833896,1.601904 4.362157,6.837633 0.930429,9.221713 -1.239073,0.860805 -3.232705,1.139053 -4.781985,0.667412 z M 53.136102,94.707131 c -2.377953,-0.494398 -3.866658,-2.244787 -4.048612,-4.760276 -0.36845,-5.093765 5.6419,-7.727582 9.043133,-3.962824 0.935091,1.035034 1.485459,2.433761 1.488161,3.782078 0.003,1.51677 -1.349552,3.707406 -2.776649,4.497014 -0.725785,0.401574 -2.745993,0.643609 -3.706033,0.444008 z"
         id="path3" /></g></g></svg>
